<svg width="21" height="21" viewBox="0 0 21 21" fill="none" xmlns="http://www.w3.org/2000/svg">
<path d="M9.33333 11.6667C9.66389 11.6667 9.94097 11.5549 10.1646 11.3313C10.3882 11.1076 10.5 10.8306 10.5 10.5C10.5 10.1694 10.3882 9.89236 10.1646 9.66875C9.94097 9.44514 9.66389 9.33333 9.33333 9.33333C9.00278 9.33333 8.72569 9.44514 8.50208 9.66875C8.27847 9.89236 8.16667 10.1694 8.16667 10.5C8.16667 10.8306 8.27847 11.1076 8.50208 11.3313C8.72569 11.5549 9.00278 11.6667 9.33333 11.6667ZM4.66667 21V18.6667L11.6667 17.5V4.52083C11.6667 4.22917 11.5792 3.96667 11.4042 3.73333C11.2292 3.5 11.0056 3.36389 10.7333 3.325L4.66667 2.33333V0L11.0833 1.05C11.9389 1.20556 12.6389 1.60417 13.1833 2.24583C13.7278 2.8875 14 3.63611 14 4.49167V19.425L4.66667 21ZM0 21V18.6667H2.33333V2.33333C2.33333 1.67222 2.56181 1.11806 3.01875 0.670833C3.47569 0.223611 4.025 0 4.66667 0H16.3333C16.9944 0 17.5486 0.223611 17.9958 0.670833C18.4431 1.11806 18.6667 1.67222 18.6667 2.33333V18.6667H21V21H0ZM4.66667 18.6667H16.3333V2.33333H4.66667V18.6667Z" fill="#49494C"/>
</svg>
