<svg width="27" height="21" viewBox="0 0 27 21" fill="none" xmlns="http://www.w3.org/2000/svg">
<path d="M5.33333 21C5.00278 21 4.7257 20.8882 4.50208 20.6646C4.27847 20.441 4.16667 20.1639 4.16667 19.8333V18.6667C3.19445 18.6667 2.36806 18.3264 1.6875 17.6458C1.00695 16.9653 0.666668 16.1389 0.666668 15.1667V9.33333C0.666668 8.36111 1.00695 7.53472 1.6875 6.85417C2.36806 6.17361 3.19445 5.83333 4.16667 5.83333V3.5C4.16667 2.52778 4.50695 1.70139 5.1875 1.02083C5.86806 0.340278 6.69445 0 7.66667 0H19.3333C20.3056 0 21.1319 0.340278 21.8125 1.02083C22.4931 1.70139 22.8333 2.52778 22.8333 3.5V5.83333C23.8056 5.83333 24.6319 6.17361 25.3125 6.85417C25.9931 7.53472 26.3333 8.36111 26.3333 9.33333V15.1667C26.3333 16.1389 25.9931 16.9653 25.3125 17.6458C24.6319 18.3264 23.8056 18.6667 22.8333 18.6667V19.8333C22.8333 20.1639 22.7215 20.441 22.4979 20.6646C22.2743 20.8882 21.9972 21 21.6667 21C21.3361 21 21.059 20.8882 20.8354 20.6646C20.6118 20.441 20.5 20.1639 20.5 19.8333V18.6667H6.5V19.8333C6.5 20.1639 6.3882 20.441 6.16458 20.6646C5.94097 20.8882 5.66389 21 5.33333 21ZM4.16667 16.3333H22.8333C23.1639 16.3333 23.441 16.2215 23.6646 15.9979C23.8882 15.7743 24 15.4972 24 15.1667V9.33333C24 9.00278 23.8882 8.72569 23.6646 8.50208C23.441 8.27847 23.1639 8.16667 22.8333 8.16667C22.5028 8.16667 22.2257 8.27847 22.0021 8.50208C21.7785 8.72569 21.6667 9.00278 21.6667 9.33333V14H5.33333V9.33333C5.33333 9.00278 5.22153 8.72569 4.99792 8.50208C4.77431 8.27847 4.49722 8.16667 4.16667 8.16667C3.83611 8.16667 3.55903 8.27847 3.33542 8.50208C3.11181 8.72569 3 9.00278 3 9.33333V15.1667C3 15.4972 3.11181 15.7743 3.33542 15.9979C3.55903 16.2215 3.83611 16.3333 4.16667 16.3333ZM7.66667 11.6667H19.3333V9.33333C19.3333 8.80833 19.4403 8.33194 19.6542 7.90417C19.8681 7.47639 20.15 7.09722 20.5 6.76667V3.5C20.5 3.16944 20.3882 2.89236 20.1646 2.66875C19.941 2.44514 19.6639 2.33333 19.3333 2.33333H7.66667C7.33611 2.33333 7.05903 2.44514 6.83542 2.66875C6.61181 2.89236 6.5 3.16944 6.5 3.5V6.76667C6.85 7.09722 7.13195 7.47639 7.34583 7.90417C7.55972 8.33194 7.66667 8.80833 7.66667 9.33333V11.6667Z" fill="#49494C"/>
</svg>
