<svg width="25" height="24" viewBox="0 0 25 24" fill="none" xmlns="http://www.w3.org/2000/svg">
<path d="M12.4786 19.1994C12.8986 19.1994 13.2536 19.0544 13.5436 18.7644C13.8336 18.4744 13.9786 18.1194 13.9786 17.6994C13.9786 17.2794 13.8336 16.9244 13.5436 16.6344C13.2536 16.3444 12.8986 16.1994 12.4786 16.1994C12.0586 16.1994 11.7036 16.3444 11.4136 16.6344C11.1236 16.9244 10.9786 17.2794 10.9786 17.6994C10.9786 18.1194 11.1236 18.4744 11.4136 18.7644C11.7036 19.0544 12.0586 19.1994 12.4786 19.1994ZM11.3986 14.5794H13.6186C13.6186 13.9194 13.6936 13.3994 13.8436 13.0194C13.9936 12.6394 14.4186 12.1194 15.1186 11.4594C15.6386 10.9394 16.0486 10.4444 16.3486 9.97439C16.6486 9.50439 16.7986 8.93939 16.7986 8.27939C16.7986 7.15939 16.3886 6.29939 15.5686 5.69939C14.7486 5.09939 13.7786 4.79939 12.6586 4.79939C11.5186 4.79939 10.5936 5.09939 9.88357 5.69939C9.17357 6.29939 8.67857 7.01939 8.39857 7.85939L10.3786 8.63939C10.4786 8.27939 10.7036 7.88939 11.0536 7.46939C11.4036 7.04939 11.9386 6.83939 12.6586 6.83939C13.2986 6.83939 13.7786 7.01439 14.0986 7.36439C14.4186 7.71439 14.5786 8.09939 14.5786 8.51939C14.5786 8.91939 14.4586 9.29439 14.2186 9.64439C13.9786 9.99439 13.6786 10.3194 13.3186 10.6194C12.4386 11.3994 11.8986 11.9894 11.6986 12.3894C11.4986 12.7894 11.3986 13.5194 11.3986 14.5794ZM12.5386 23.9994C10.8786 23.9994 9.31857 23.6844 7.85857 23.0544C6.39857 22.4244 5.12857 21.5694 4.04857 20.4894C2.96857 19.4094 2.11357 18.1394 1.48357 16.6794C0.853574 15.2194 0.538574 13.6594 0.538574 11.9994C0.538574 10.3394 0.853574 8.77939 1.48357 7.31939C2.11357 5.85939 2.96857 4.58939 4.04857 3.50939C5.12857 2.42939 6.39857 1.57439 7.85857 0.94439C9.31857 0.31439 10.8786 -0.000610352 12.5386 -0.000610352C14.1986 -0.000610352 15.7586 0.31439 17.2186 0.94439C18.6786 1.57439 19.9486 2.42939 21.0286 3.50939C22.1086 4.58939 22.9636 5.85939 23.5936 7.31939C24.2236 8.77939 24.5386 10.3394 24.5386 11.9994C24.5386 13.6594 24.2236 15.2194 23.5936 16.6794C22.9636 18.1394 22.1086 19.4094 21.0286 20.4894C19.9486 21.5694 18.6786 22.4244 17.2186 23.0544C15.7586 23.6844 14.1986 23.9994 12.5386 23.9994ZM12.5386 21.5994C15.2186 21.5994 17.4886 20.6694 19.3486 18.8094C21.2086 16.9494 22.1386 14.6794 22.1386 11.9994C22.1386 9.31939 21.2086 7.04939 19.3486 5.18939C17.4886 3.32939 15.2186 2.39939 12.5386 2.39939C9.85857 2.39939 7.58857 3.32939 5.72857 5.18939C3.86857 7.04939 2.93857 9.31939 2.93857 11.9994C2.93857 14.6794 3.86857 16.9494 5.72857 18.8094C7.58857 20.6694 9.85857 21.5994 12.5386 21.5994Z" fill="#4D4D4D"/>
</svg>
