<svg width="27" height="25" viewBox="0 0 27 25" fill="none" xmlns="http://www.w3.org/2000/svg">
<path d="M2.99998 24.1667V21.8333H12.3333V24.1667H2.99998ZM19.3333 23C18.6916 23 18.1423 22.7715 17.6854 22.3146C17.2285 21.8576 17 21.3083 17 20.6667H13.5C13.1694 20.6667 12.8923 20.5597 12.6687 20.3458C12.4451 20.1319 12.3333 19.8597 12.3333 19.5292C12.2944 17.7792 12.8389 16.2576 13.9666 14.9646C15.0944 13.6715 16.4944 12.8889 18.1666 12.6167V0.833336H20.5V12.6167C22.1916 12.8889 23.5965 13.6715 24.7146 14.9646C25.8326 16.2576 26.3722 17.7792 26.3333 19.5292C26.3333 19.8597 26.2215 20.1319 25.9979 20.3458C25.7743 20.5597 25.4972 20.6667 25.1666 20.6667H21.6666C21.6666 21.3083 21.443 21.8576 20.9958 22.3146C20.5486 22.7715 19.9944 23 19.3333 23ZM6.49998 20.6667V11.3333H1.83332C1.44443 11.3333 1.13332 11.1826 0.899982 10.8813C0.666649 10.5799 0.598594 10.2444 0.695816 9.875L2.88332 1.70834C2.96109 1.45556 3.10207 1.24653 3.30623 1.08125C3.5104 0.915975 3.74859 0.833336 4.02082 0.833336H11.3125C11.5847 0.833336 11.8229 0.915975 12.0271 1.08125C12.2312 1.24653 12.3722 1.45556 12.45 1.70834L14.6375 9.875C14.7347 10.2444 14.6666 10.5799 14.4333 10.8813C14.2 11.1826 13.8889 11.3333 13.5 11.3333H8.83331V20.6667H6.49998ZM14.7833 18.3333H23.8833C23.65 17.2833 23.1055 16.4375 22.25 15.7958C21.3944 15.1542 20.4222 14.8333 19.3333 14.8333C18.2639 14.8333 17.3014 15.1542 16.4458 15.7958C15.5903 16.4375 15.0361 17.2833 14.7833 18.3333ZM3.34998 9H11.9833L10.4375 3.16667H4.92498L3.34998 9Z" fill="#1C1B1F" fill-opacity="0.8"/>
</svg>
