<svg width="28" height="28" viewBox="0 0 28 28" fill="none" xmlns="http://www.w3.org/2000/svg">
<rect x="1.25" y="1.25" width="25.5" height="25.5" stroke="#1C1B1F" stroke-width="1.5"/>
<mask id="mask0_1_449" style="mask-type:alpha" maskUnits="userSpaceOnUse" x="2" y="2" width="24" height="24">
<rect x="2" y="2" width="24" height="24" fill="#D9D9D9"/>
</mask>
<g mask="url(#mask0_1_449)">
<path d="M14.1865 18.9211L22.4942 10.6135C22.5391 10.5686 22.5615 10.5141 22.5615 10.45C22.5615 10.3859 22.5391 10.3314 22.4942 10.2865L21.5211 9.31347C21.4763 9.26859 21.4218 9.24615 21.3577 9.24615C21.2936 9.24615 21.2391 9.26859 21.1942 9.31347L12.8865 17.6212L14.1865 18.9211ZM7.91152 20.7307C6.42436 20.6474 5.30771 20.3166 4.56157 19.7384C3.81541 19.1602 3.44232 18.3423 3.44232 17.2846C3.44232 16.2718 3.86732 15.4503 4.71732 14.8202C5.56732 14.1901 6.74873 13.8084 8.26155 13.675C8.98848 13.6122 9.53368 13.4808 9.89715 13.2808C10.2606 13.0808 10.4423 12.8038 10.4423 12.45C10.4423 11.959 10.1965 11.5843 9.70485 11.3259C9.21318 11.0676 8.40709 10.882 7.28657 10.7692L7.4231 9.27888C8.96026 9.42503 10.0978 9.75643 10.8356 10.2731C11.5734 10.7898 11.9423 11.5154 11.9423 12.45C11.9423 13.2436 11.6375 13.8727 11.0279 14.3375C10.4183 14.8022 9.53335 15.0814 8.3731 15.175C7.2295 15.2711 6.3718 15.4942 5.8 15.8442C5.2282 16.1942 4.9423 16.6744 4.9423 17.2846C4.9423 17.9064 5.18044 18.3689 5.65672 18.6721C6.13301 18.9753 6.90512 19.1616 7.97307 19.2308L7.91152 20.7307ZM14.4211 20.8096L10.9981 17.3866L20.3365 8.05772C20.6314 7.76286 20.976 7.61703 21.3702 7.62025C21.7644 7.62345 22.109 7.76927 22.4038 8.05772L23.7499 9.40385C24.0448 9.69872 24.1922 10.0449 24.1922 10.4423C24.1922 10.8397 24.0448 11.1859 23.7499 11.4807L14.4211 20.8096ZM11.0808 21.5C10.8551 21.5538 10.6564 21.4948 10.4846 21.323C10.3128 21.1512 10.2539 20.9525 10.3077 20.7269L10.9981 17.3866L14.4211 20.8096L11.0808 21.5Z" fill="#1C1B1F"/>
<path d="M7.5 0.999916V10" stroke="#1C1B1F" stroke-width="1.5" stroke-linecap="round"/>
<path d="M8 20V26.5" stroke="#1C1B1F" stroke-width="1.5" stroke-linecap="round"/>
</g>
</svg>
