<svg width="24" height="25" viewBox="0 0 24 25" fill="none" xmlns="http://www.w3.org/2000/svg">
<path d="M11.9125 24.1667C10.2986 24.1667 8.78193 23.8604 7.36249 23.2479C5.94304 22.6354 4.70832 21.8042 3.65832 20.7542C2.60832 19.7042 1.77707 18.4694 1.16457 17.05C0.552069 15.6306 0.245819 14.1139 0.245819 12.5C0.245819 10.8861 0.552069 9.36945 1.16457 7.95C1.77707 6.53056 2.60832 5.29584 3.65832 4.24584C4.70832 3.19584 5.94304 2.36459 7.36249 1.75209C8.78193 1.13959 10.2986 0.833336 11.9125 0.833336C13.5264 0.833336 15.043 1.13959 16.4625 1.75209C17.8819 2.36459 19.1167 3.19584 20.1667 4.24584C21.2167 5.29584 22.0479 6.53056 22.6604 7.95C23.2729 9.36945 23.5792 10.8861 23.5792 12.5C23.5792 14.1139 23.2729 15.6306 22.6604 17.05C22.0479 18.4694 21.2167 19.7042 20.1667 20.7542C19.1167 21.8042 17.8819 22.6354 16.4625 23.2479C15.043 23.8604 13.5264 24.1667 11.9125 24.1667ZM20.0208 17.1667H8.84999L7.68332 18.3333H19.2333C19.3889 18.1389 19.5299 17.9493 19.6562 17.7646C19.7826 17.5799 19.9042 17.3806 20.0208 17.1667ZM21.1875 13.6667H12.3792L11.2125 14.8333H20.9542C20.993 14.6389 21.0319 14.4493 21.0708 14.2646C21.1097 14.0799 21.1486 13.8806 21.1875 13.6667ZM20.9542 10.1667H15.8792L14.7125 11.3333H21.1875C21.1486 11.1194 21.1097 10.9201 21.0708 10.7354C21.0319 10.5507 20.993 10.3611 20.9542 10.1667ZM19.2917 6.78334L18.2417 7.83334H20.0208C19.9236 7.63889 19.8118 7.45903 19.6854 7.29375C19.559 7.12848 19.4278 6.95834 19.2917 6.78334ZM4.53332 18.2167L17.6875 5.12084C16.8903 4.49861 16.0055 4.01736 15.0333 3.67709C14.0611 3.33681 13.0208 3.16667 11.9125 3.16667C9.30693 3.16667 7.09999 4.07084 5.29165 5.87917C3.48332 7.6875 2.57915 9.89445 2.57915 12.5C2.57915 13.5889 2.74929 14.6146 3.08957 15.5771C3.42985 16.5396 3.9111 17.4194 4.53332 18.2167ZM11.9125 21.8333C12.7486 21.8333 13.5458 21.7361 14.3042 21.5417C15.0625 21.3472 15.7819 21.0556 16.4625 20.6667H7.36249C8.04304 21.0556 8.76249 21.3472 9.52082 21.5417C10.2792 21.7361 11.0764 21.8333 11.9125 21.8333Z" fill="white"/>
</svg>
